<svg width="150" height="150" viewBox="0 0 150 150" fill="none" xmlns="http://www.w3.org/2000/svg">
<rect x="4" y="4" width="142" height="142" rx="14.2" fill="#FACC15"/>
<g clip-path="url(#clip0_11_2)">
<path d="M26.4563 71.7769L21.6217 76.6115C21.1943 77.0389 20.9541 77.6186 20.9541 78.2231C20.9541 78.8275 21.1943 79.4072 21.6217 79.8346L42.5718 100.785C43.4266 101.64 44.586 102.12 45.7949 102.12C47.0038 102.12 48.1631 101.64 49.018 100.785C49.8728 99.9299 50.353 98.7705 50.353 97.5616C50.353 96.3527 49.8728 95.1934 49.018 94.3385L24.8448 70.1654C24.4174 69.7379 24.1772 69.1583 24.1772 68.5538C24.1772 67.9494 24.4174 67.3697 24.8448 66.9423L31.2909 60.4961M31.2909 60.4961L36.1256 65.3307C36.9804 66.1855 38.1398 66.6658 39.3487 66.6658C40.5576 66.6658 41.7169 66.1855 42.5718 65.3307C43.4266 64.4759 43.9068 63.3165 43.9068 62.1076C43.9068 60.8987 43.4266 59.7394 42.5718 58.8845L37.7371 54.0499C37.3097 53.6225 36.73 53.3824 36.1256 53.3824C35.5211 53.3824 34.9414 53.6225 34.514 54.0499L31.2909 57.273C30.8635 57.7004 30.6234 58.2801 30.6234 58.8845C30.6234 59.489 30.8635 60.0687 31.2909 60.4961Z" stroke="black" stroke-width="4.55814" stroke-linecap="round" stroke-linejoin="round"/>
<path d="M49.0179 100.785L71.5796 78.2231C72.4344 77.3683 72.9146 76.2089 72.9146 75C72.9146 73.7911 72.4344 72.6317 71.5796 71.7769L47.4064 47.6037C46.979 47.1763 46.3993 46.9362 45.7948 46.9362C45.1904 46.9362 44.6107 47.1763 44.1833 47.6037L37.7371 54.0499" stroke="black" stroke-width="4.55814" stroke-linecap="round" stroke-linejoin="round"/>
</g>
<g clip-path="url(#clip1_11_2)">
<path d="M78.2231 26.4563L73.3885 21.6216C72.9611 21.1942 72.3814 20.9541 71.7769 20.9541C71.1725 20.9541 70.5928 21.1942 70.1654 21.6216L49.2153 42.5717C48.3605 43.4266 47.8802 44.5859 47.8802 45.7948C47.8802 47.0037 48.3605 48.1631 49.2153 49.0179C50.0701 49.8727 51.2295 50.353 52.4384 50.353C53.6473 50.353 54.8066 49.8727 55.6615 49.0179L79.8346 24.8447C80.2621 24.4173 80.8417 24.1772 81.4462 24.1772C82.0506 24.1772 82.6303 24.4173 83.0577 24.8447L89.5039 31.2909M89.5039 31.2909L84.6693 36.1256C83.8145 36.9804 83.3342 38.1398 83.3342 39.3486C83.3342 40.5575 83.8145 41.7169 84.6693 42.5717C85.5241 43.4266 86.6835 43.9068 87.8924 43.9068C89.1013 43.9068 90.2606 43.4266 91.1155 42.5717L95.9501 37.7371C96.3775 37.3097 96.6176 36.73 96.6176 36.1256C96.6176 35.5211 96.3775 34.9414 95.9501 34.514L92.727 31.2909C92.2996 30.8635 91.7199 30.6234 91.1155 30.6234C90.511 30.6234 89.9313 30.8635 89.5039 31.2909Z" stroke="black" stroke-width="4.55814" stroke-linecap="round" stroke-linejoin="round"/>
<path d="M49.2153 49.0179L71.7769 71.5796C72.6317 72.4344 73.7911 72.9146 75 72.9146C76.2089 72.9146 77.3683 72.4344 78.2231 71.5796L102.396 47.4064C102.824 46.979 103.064 46.3993 103.064 45.7948C103.064 45.1904 102.824 44.6107 102.396 44.1833L95.9501 37.7371" stroke="black" stroke-width="4.55814" stroke-linecap="round" stroke-linejoin="round"/>
</g>
<g clip-path="url(#clip2_11_2)">
<path d="M71.7768 123.544L76.6115 128.378C77.0389 128.806 77.6186 129.046 78.223 129.046C78.8275 129.046 79.4072 128.806 79.8346 128.378L100.785 107.428C101.639 106.573 102.12 105.414 102.12 104.205C102.12 102.996 101.639 101.837 100.785 100.982C99.9298 100.127 98.7705 99.647 97.5616 99.647C96.3527 99.647 95.1933 100.127 94.3385 100.982L70.1653 125.155C69.7379 125.583 69.1582 125.823 68.5537 125.823C67.9493 125.823 67.3696 125.583 66.9422 125.155L60.496 118.709M60.496 118.709L65.3307 113.874C66.1855 113.02 66.6657 111.86 66.6657 110.651C66.6657 109.442 66.1855 108.283 65.3307 107.428C64.4758 106.573 63.3165 106.093 62.1076 106.093C60.8987 106.093 59.7393 106.573 58.8845 107.428L54.0498 112.263C53.6224 112.69 53.3823 113.27 53.3823 113.874C53.3823 114.479 53.6224 115.059 54.0498 115.486L57.2729 118.709C57.7003 119.136 58.28 119.377 58.8845 119.377C59.4889 119.377 60.0686 119.136 60.496 118.709Z" stroke="black" stroke-width="4.55814" stroke-linecap="round" stroke-linejoin="round"/>
<path d="M100.785 100.982L78.223 78.4204C77.3682 77.5656 76.2088 77.0854 74.9999 77.0854C73.791 77.0854 72.6317 77.5656 71.7768 78.4204L47.6037 102.594C47.1763 103.021 46.9361 103.601 46.9361 104.205C46.9361 104.81 47.1763 105.389 47.6037 105.817L54.0498 112.263" stroke="black" stroke-width="4.55814" stroke-linecap="round" stroke-linejoin="round"/>
</g>
<g clip-path="url(#clip3_11_2)">
<path d="M123.544 78.2231L128.378 73.3885C128.806 72.961 129.046 72.3814 129.046 71.7769C129.046 71.1725 128.806 70.5928 128.378 70.1654L107.428 49.2153C106.573 48.3605 105.414 47.8802 104.205 47.8802C102.996 47.8802 101.837 48.3605 100.982 49.2153C100.127 50.0701 99.647 51.2295 99.647 52.4384C99.647 53.6473 100.127 54.8066 100.982 55.6615L125.155 79.8346C125.583 80.262 125.823 80.8417 125.823 81.4462C125.823 82.0506 125.583 82.6303 125.155 83.0577L118.709 89.5039M118.709 89.5039L113.874 84.6693C113.02 83.8145 111.86 83.3342 110.651 83.3342C109.442 83.3342 108.283 83.8145 107.428 84.6693C106.573 85.5241 106.093 86.6835 106.093 87.8924C106.093 89.1013 106.573 90.2606 107.428 91.1155L112.263 95.9501C112.69 96.3775 113.27 96.6176 113.874 96.6176C114.479 96.6176 115.059 96.3775 115.486 95.9501L118.709 92.727C119.136 92.2996 119.377 91.7199 119.377 91.1155C119.377 90.511 119.136 89.9313 118.709 89.5039Z" stroke="black" stroke-width="4.55814" stroke-linecap="round" stroke-linejoin="round"/>
<path d="M100.982 49.2153L78.4204 71.7769C77.5656 72.6317 77.0854 73.7911 77.0854 75C77.0854 76.2089 77.5656 77.3683 78.4204 78.2231L102.594 102.396C103.021 102.824 103.601 103.064 104.205 103.064C104.81 103.064 105.389 102.824 105.817 102.396L112.263 95.9501" stroke="black" stroke-width="4.55814" stroke-linecap="round" stroke-linejoin="round"/>
</g>
<defs>
<clipPath id="clip0_11_2">
<rect width="54.6977" height="54.6977" fill="white" transform="translate(45.7949 113.677) rotate(-135)"/>
</clipPath>
<clipPath id="clip1_11_2">
<rect width="54.6977" height="54.6977" fill="white" transform="translate(36.3229 45.7948) rotate(-45)"/>
</clipPath>
<clipPath id="clip2_11_2">
<rect width="54.6977" height="54.6977" fill="white" transform="translate(113.677 104.205) rotate(135)"/>
</clipPath>
<clipPath id="clip3_11_2">
<rect width="54.6977" height="54.6977" fill="white" transform="translate(104.205 36.3229) rotate(45)"/>
</clipPath>
</defs>
</svg>
