<svg width="150" height="150" viewBox="0 0 150 150" fill="none" xmlns="http://www.w3.org/2000/svg">
<rect width="150" height="150" fill="white"/>
<path d="M10 121.091V28H32.5V67.3636H33.7273L64.5 28H91L58 69.5455L91.5909 121.091H64.6818L41.5 84.5L32.5 95.8636V121.091H10Z" fill="black"/>
<path fill-rule="evenodd" clip-rule="evenodd" d="M82.0909 29.1818C83.2084 28.7424 84.3434 28.3484 85.4961 28H113.55C113.884 28.1021 114.216 28.2082 114.545 28.3182C119.212 29.8636 123.333 32.0455 126.909 34.8636C130.515 37.6818 133.439 41.0303 135.682 44.9091C137.924 48.7879 139.318 53.0455 139.864 57.6818H117.091C116.576 55.7727 115.818 54.0909 114.818 52.6364C113.818 51.1515 112.591 49.8939 111.136 48.8636C109.682 47.8333 108.015 47.0606 106.136 46.5455C104.258 46 102.197 45.7273 99.9545 45.7273C95.4394 45.7273 91.5303 46.8182 88.2273 49C84.9545 51.1818 82.4242 54.3636 80.6364 58.5455C78.8485 62.697 77.9545 67.7424 77.9545 73.6818C77.9545 79.6515 78.8182 84.7424 80.5455 88.9546C82.2727 93.1667 84.7727 96.3788 88.0455 98.5909C91.3182 100.803 95.2879 101.909 99.9545 101.909C104.076 101.909 107.561 101.242 110.409 99.9091C113.288 98.5455 115.47 96.6212 116.955 94.1364C118.365 91.7755 119.106 89.0179 119.176 85.8636H100.727V69.4546H140.864V81.7727C140.864 90.1061 139.091 97.2424 135.545 103.182C132.03 109.121 127.182 113.682 121 116.864C117.095 118.884 112.817 120.262 108.167 121H91.2847C85.831 120.146 80.8573 118.434 76.3636 115.864C69.6364 112.015 64.3939 106.53 60.6364 99.4091C56.8788 92.2576 55 83.7727 55 73.9546C55 66.3182 56.1364 59.5455 58.4091 53.6364C60.6818 47.697 63.8485 42.6667 67.9091 38.5455C72 34.4242 76.7273 31.303 82.0909 29.1818Z" fill="black"/>
</svg>
