<svg width="261" height="268" viewBox="0 0 261 268" fill="none" xmlns="http://www.w3.org/2000/svg">
<path fill-rule="evenodd" clip-rule="evenodd" d="M222.635 5.23669C223.896 7.0365 224.82 9.12866 225.405 11.5133H261V26.9011H203.649V53.6273H228.775C228.677 57.4843 227.734 60.8589 225.946 63.751C224.054 66.8105 221.194 69.1727 217.365 70.8374C213.581 72.5022 208.829 73.3346 203.108 73.3346C196.622 73.3346 191.194 71.8048 186.824 68.7452C182.455 65.6857 179.167 61.2762 176.959 55.5171C174.752 49.7579 173.649 42.8289 173.649 34.73C173.649 26.7212 174.797 19.8821 177.095 14.2129C179.437 8.5437 182.815 4.20178 187.23 1.18726C187.86 0.761475 188.508 0.365723 189.175 0H217.028C217.328 0.185303 217.62 0.37854 217.905 0.579834C219.797 1.83972 221.374 3.39197 222.635 5.23669ZM260.797 0C260.866 0.192749 260.934 0.386108 261 0.579956V0H260.797ZM142.362 0C141.593 1.58313 140.873 3.21619 140.203 4.89929C136.734 13.718 135 23.8416 135 35.27C135 49.8479 137.838 62.4236 143.514 72.9972C149.234 83.5707 157.185 91.7145 167.365 97.4287C177.545 103.143 189.369 106 202.838 106C214.91 106 225.608 103.638 234.932 98.9135C244.302 94.1442 251.644 87.3052 256.959 78.3964C258.539 75.7579 259.886 72.9612 261 70.0062V268H128.009L80.6223 191.77L128.884 128H83.691L40.7296 185.897H38.7768V128H0V0H142.362ZM51.6094 217.502L81.7774 268H38.7768V234.284L51.6094 217.502Z" fill="#FACC15"/>
<g clip-path="url(#clip0_9_119)">
<path d="M43.6482 127.848L34.9862 136.51C34.2204 137.275 33.7902 138.314 33.7902 139.397C33.7902 140.48 34.2204 141.519 34.9862 142.284L72.5218 179.82C74.0533 181.352 76.1305 182.212 78.2965 182.212C80.4624 182.212 82.5396 181.352 84.0712 179.82C85.6027 178.288 86.4631 176.211 86.4631 174.045C86.4631 171.879 85.6027 169.802 84.0712 168.271L40.7609 124.96C39.9951 124.195 39.5649 123.156 39.5649 122.073C39.5649 120.99 39.9951 119.951 40.7609 119.186L52.3103 107.636M52.3103 107.636L60.9724 116.298C62.5039 117.83 64.5811 118.69 66.7471 118.69C68.913 118.69 70.9902 117.83 72.5218 116.298C74.0533 114.767 74.9137 112.689 74.9137 110.524C74.9137 108.358 74.0533 106.28 72.5218 104.749L63.8597 96.0868C63.0939 95.321 62.0553 94.8908 60.9723 94.8908C59.8894 94.8908 58.8508 95.321 58.085 96.0868L52.3103 101.861C51.5445 102.627 51.1143 103.666 51.1143 104.749C51.1143 105.832 51.5445 106.87 52.3103 107.636Z" stroke="black" stroke-width="8.16667" stroke-linecap="round" stroke-linejoin="round"/>
<path d="M84.0712 179.82L124.494 139.397C126.026 137.866 126.886 135.788 126.886 133.622C126.886 131.456 126.026 129.379 124.494 127.848L81.1838 84.5374C80.418 83.7716 79.3794 83.3414 78.2965 83.3414C77.2135 83.3414 76.1749 83.7716 75.4091 84.5374L63.8597 96.0868" stroke="black" stroke-width="8.16667" stroke-linecap="round" stroke-linejoin="round"/>
</g>
<g clip-path="url(#clip1_9_119)">
<path d="M136.397 46.6482L127.735 37.9862C126.969 37.2204 125.931 36.7902 124.848 36.7902C123.765 36.7902 122.726 37.2204 121.96 37.9862L84.4248 75.5217C82.8932 77.0533 82.0328 79.1305 82.0328 81.2964C82.0328 83.4624 82.8932 85.5396 84.4248 87.0712C85.9563 88.6027 88.0336 89.4631 90.1995 89.4631C92.3654 89.4631 94.4426 88.6027 95.9742 87.0712L139.284 43.7609C140.05 42.9951 141.089 42.5649 142.172 42.5649C143.255 42.5649 144.293 42.9951 145.059 43.7609L156.609 55.3103M156.609 55.3103L147.947 63.9723C146.415 65.5039 145.555 67.5811 145.555 69.747C145.555 71.913 146.415 73.9902 147.947 75.5217C149.478 77.0533 151.555 77.9137 153.721 77.9137C155.887 77.9137 157.964 77.0533 159.496 75.5217L168.158 66.8597C168.924 66.0939 169.354 65.0553 169.354 63.9723C169.354 62.8894 168.924 61.8508 168.158 61.085L162.383 55.3103C161.618 54.5445 160.579 54.1143 159.496 54.1143C158.413 54.1143 157.374 54.5445 156.609 55.3103Z" stroke="black" stroke-width="8.16667" stroke-linecap="round" stroke-linejoin="round"/>
<path d="M84.4248 87.0712L124.848 127.494C126.379 129.026 128.456 129.886 130.622 129.886C132.788 129.886 134.866 129.026 136.397 127.494L179.707 84.1838C180.473 83.418 180.903 82.3794 180.903 81.2965C180.903 80.2135 180.473 79.1749 179.707 78.4091L168.158 66.8597" stroke="black" stroke-width="8.16667" stroke-linecap="round" stroke-linejoin="round"/>
</g>
<g clip-path="url(#clip2_9_119)">
<path d="M124.848 220.597L133.51 229.259C134.276 230.024 135.314 230.455 136.397 230.455C137.48 230.455 138.519 230.024 139.284 229.259L176.82 191.723C178.352 190.191 179.212 188.114 179.212 185.948C179.212 183.782 178.352 181.705 176.82 180.174C175.288 178.642 173.211 177.782 171.045 177.782C168.879 177.782 166.802 178.642 165.271 180.174L121.96 223.484C121.195 224.25 120.156 224.68 119.073 224.68C117.99 224.68 116.951 224.25 116.186 223.484L104.636 211.934M104.636 211.934L113.298 203.272C114.83 201.741 115.69 199.664 115.69 197.498C115.69 195.332 114.83 193.255 113.298 191.723C111.767 190.191 109.689 189.331 107.524 189.331C105.358 189.331 103.28 190.191 101.749 191.723L93.0868 200.385C92.321 201.151 91.8908 202.189 91.8908 203.272C91.8908 204.355 92.321 205.394 93.0868 206.16L98.8615 211.934C99.6273 212.7 100.666 213.13 101.749 213.13C102.832 213.13 103.87 212.7 104.636 211.934Z" stroke="black" stroke-width="8.16667" stroke-linecap="round" stroke-linejoin="round"/>
<path d="M176.82 180.174L136.397 139.751C134.866 138.219 132.788 137.359 130.622 137.359C128.456 137.359 126.379 138.219 124.848 139.751L81.5374 183.061C80.7716 183.827 80.3414 184.865 80.3414 185.948C80.3414 187.031 80.7716 188.07 81.5374 188.836L93.0868 200.385" stroke="black" stroke-width="8.16667" stroke-linecap="round" stroke-linejoin="round"/>
</g>
<g clip-path="url(#clip3_9_119)">
<path d="M217.597 139.397L226.259 130.735C227.024 129.969 227.455 128.931 227.455 127.848C227.455 126.765 227.024 125.726 226.259 124.96L188.723 87.4248C187.191 85.8932 185.114 85.0328 182.948 85.0328C180.782 85.0328 178.705 85.8932 177.174 87.4248C175.642 88.9563 174.782 91.0335 174.782 93.1995C174.782 95.3654 175.642 97.4426 177.174 98.9742L220.484 142.284C221.25 143.05 221.68 144.089 221.68 145.172C221.68 146.255 221.25 147.293 220.484 148.059L208.934 159.609M208.934 159.609L200.272 150.947C198.741 149.415 196.664 148.555 194.498 148.555C192.332 148.555 190.255 149.415 188.723 150.947C187.191 152.478 186.331 154.555 186.331 156.721C186.331 158.887 187.191 160.964 188.723 162.496L197.385 171.158C198.151 171.924 199.189 172.354 200.272 172.354C201.355 172.354 202.394 171.924 203.16 171.158L208.934 165.383C209.7 164.618 210.13 163.579 210.13 162.496C210.13 161.413 209.7 160.374 208.934 159.609Z" stroke="black" stroke-width="8.16667" stroke-linecap="round" stroke-linejoin="round"/>
<path d="M177.174 87.4247L136.751 127.848C135.219 129.379 134.359 131.456 134.359 133.622C134.359 135.788 135.219 137.866 136.751 139.397L180.061 182.707C180.827 183.473 181.865 183.903 182.948 183.903C184.031 183.903 185.07 183.473 185.836 182.707L197.385 171.158" stroke="black" stroke-width="8.16667" stroke-linecap="round" stroke-linejoin="round"/>
</g>
<defs>
<clipPath id="clip0_9_119">
<rect width="98" height="98" fill="white" transform="translate(78.2965 202.919) rotate(-135)"/>
</clipPath>
<clipPath id="clip1_9_119">
<rect width="98" height="98" fill="white" transform="translate(61.326 81.2964) rotate(-45)"/>
</clipPath>
<clipPath id="clip2_9_119">
<rect width="98" height="98" fill="white" transform="translate(199.919 185.948) rotate(135)"/>
</clipPath>
<clipPath id="clip3_9_119">
<rect width="98" height="98" fill="white" transform="translate(182.948 64.3259) rotate(45)"/>
</clipPath>
</defs>
</svg>
